<svg xmlns="http://www.w3.org/2000/svg" xmlns:xlink="http://www.w3.org/1999/xlink" width="612" zoomAndPan="magnify" viewBox="0 0 458.88 109.499999" height="146" preserveAspectRatio="xMidYMid meet" version="1.0"><defs><g/><clipPath id="id1"><path d="M 6.894531 2.425781 L 97.234375 2.425781 L 97.234375 81 L 6.894531 81 Z M 6.894531 2.425781 " clip-rule="nonzero"/></clipPath><clipPath id="id2"><path d="M 6.894531 53 L 97.234375 53 L 97.234375 106.203125 L 6.894531 106.203125 Z M 6.894531 53 " clip-rule="nonzero"/></clipPath><clipPath id="id3"><path d="M 51 2.425781 L 53 2.425781 L 53 106.203125 L 51 106.203125 Z M 51 2.425781 " clip-rule="nonzero"/></clipPath></defs><g clip-path="url(#id1)"><path fill="rgb(33.729553%, 30.198669%, 92.158508%)" d="M 73.6875 41.875 L 52.0625 4.5625 L 30.460938 41.839844 L 30.4375 41.878906 L 9.519531 77.976562 L 29.480469 66.492188 L 51.710938 53.703125 C 51.921875 53.582031 52.1875 53.574219 52.410156 53.703125 L 74.640625 66.492188 L 94.601562 77.976562 L 73.683594 41.878906 L 73.683594 41.875 Z M 52.671875 2.8125 L 97.140625 79.539062 C 97.335938 79.875 97.214844 80.304688 96.882812 80.496094 C 96.640625 80.636719 96.355469 80.617188 96.140625 80.476562 L 73.945312 67.710938 L 52.0625 55.121094 L 30.179688 67.710938 L 7.949219 80.5 C 7.613281 80.691406 7.183594 80.574219 6.992188 80.242188 C 6.863281 80.019531 6.871094 79.753906 6.992188 79.542969 L 29.222656 41.179688 L 29.246094 41.144531 L 51.457031 2.820312 C 51.648438 2.484375 52.078125 2.367188 52.414062 2.5625 C 52.527344 2.628906 52.617188 2.714844 52.675781 2.820312 Z M 52.671875 2.8125 " fill-opacity="1" fill-rule="evenodd"/></g><g clip-path="url(#id2)"><path fill="rgb(33.729553%, 30.198669%, 92.158508%)" d="M 73.945312 67.710938 L 52.0625 55.121094 L 30.179688 67.710938 L 9.003906 79.890625 L 30.179688 92.074219 L 52.0625 104.660156 L 73.945312 92.074219 L 95.128906 79.890625 Z M 52.414062 53.710938 L 74.644531 66.5 L 96.878906 79.289062 C 97.214844 79.480469 97.332031 79.90625 97.140625 80.242188 C 97.074219 80.355469 96.980469 80.441406 96.878906 80.5 L 74.644531 93.289062 L 52.414062 106.078125 C 52.191406 106.207031 51.921875 106.199219 51.714844 106.078125 L 29.484375 93.289062 L 7.25 80.5 C 6.914062 80.308594 6.796875 79.878906 6.992188 79.542969 C 7.054688 79.433594 7.148438 79.347656 7.25 79.289062 L 29.484375 66.5 L 51.714844 53.710938 C 51.9375 53.582031 52.207031 53.589844 52.414062 53.710938 Z M 52.414062 53.710938 " fill-opacity="1" fill-rule="evenodd"/></g><g clip-path="url(#id3)"><path fill="rgb(33.729553%, 30.198669%, 92.158508%)" d="M 51.359375 3.160156 C 51.359375 2.769531 51.675781 2.457031 52.066406 2.457031 C 52.457031 2.457031 52.773438 2.773438 52.773438 3.160156 L 52.773438 105.464844 C 52.773438 105.855469 52.457031 106.171875 52.066406 106.171875 C 51.679688 106.171875 51.359375 105.855469 51.359375 105.464844 Z M 51.359375 3.160156 " fill-opacity="1" fill-rule="evenodd"/></g><path fill="rgb(33.729553%, 30.198669%, 92.158508%)" d="M 52.0625 19.429688 L 72.144531 54.074219 L 86.28125 62.210938 L 52.0625 3.160156 L 29.832031 41.527344 L 11.679688 72.847656 L 7.601562 79.890625 L 15.761719 84.589844 L 23.921875 79.890625 L 42.410156 69.257812 L 52.0625 63.703125 L 80.207031 79.890625 L 52.0625 96.078125 L 34.035156 85.707031 L 25.871094 90.402344 L 31.945312 93.894531 L 52.0625 105.464844 L 74.296875 92.679688 L 96.53125 79.890625 L 82.390625 71.757812 L 52.0625 54.316406 L 29.832031 67.101562 L 21.734375 71.757812 Z M 52.0625 19.429688 " fill-opacity="1" fill-rule="evenodd"/><g fill="rgb(33.729553%, 30.198669%, 92.158508%)" fill-opacity="1"><g transform="translate(118.514863, 70.650802)"><g><path d="M 14.4375 0.546875 C 11.882812 0.546875 9.414062 0.203125 7.03125 -0.484375 C 4.644531 -1.171875 2.734375 -2.070312 1.296875 -3.1875 L 3.828125 -8.8125 C 5.210938 -7.789062 6.859375 -6.972656 8.765625 -6.359375 C 10.671875 -5.742188 12.578125 -5.4375 14.484375 -5.4375 C 16.609375 -5.4375 18.175781 -5.75 19.1875 -6.375 C 20.195312 -7.007812 20.703125 -7.851562 20.703125 -8.90625 C 20.703125 -9.675781 20.398438 -10.3125 19.796875 -10.8125 C 19.203125 -11.320312 18.4375 -11.726562 17.5 -12.03125 C 16.5625 -12.34375 15.296875 -12.679688 13.703125 -13.046875 C 11.242188 -13.640625 9.226562 -14.226562 7.65625 -14.8125 C 6.082031 -15.394531 4.734375 -16.332031 3.609375 -17.625 C 2.492188 -18.914062 1.9375 -20.632812 1.9375 -22.78125 C 1.9375 -24.65625 2.441406 -26.351562 3.453125 -27.875 C 4.472656 -29.40625 6.003906 -30.613281 8.046875 -31.5 C 10.085938 -32.394531 12.585938 -32.84375 15.546875 -32.84375 C 17.609375 -32.84375 19.617188 -32.59375 21.578125 -32.09375 C 23.546875 -31.601562 25.269531 -30.898438 26.75 -29.984375 L 24.453125 -24.3125 C 21.460938 -26 18.476562 -26.84375 15.5 -26.84375 C 13.40625 -26.84375 11.859375 -26.503906 10.859375 -25.828125 C 9.859375 -25.148438 9.359375 -24.257812 9.359375 -23.15625 C 9.359375 -22.050781 9.9375 -21.226562 11.09375 -20.6875 C 12.25 -20.144531 14.007812 -19.613281 16.375 -19.09375 C 18.832031 -18.507812 20.84375 -17.925781 22.40625 -17.34375 C 23.976562 -16.757812 25.328125 -15.835938 26.453125 -14.578125 C 27.578125 -13.316406 28.140625 -11.609375 28.140625 -9.453125 C 28.140625 -7.609375 27.625 -5.925781 26.59375 -4.40625 C 25.5625 -2.882812 24.015625 -1.675781 21.953125 -0.78125 C 19.890625 0.101562 17.382812 0.546875 14.4375 0.546875 Z M 14.4375 0.546875 "/></g></g></g><g fill="rgb(33.729553%, 30.198669%, 92.158508%)" fill-opacity="1"><g transform="translate(156.65092, 70.650802)"><g><path d="M 25.09375 -6.921875 L 10.09375 -6.921875 L 7.234375 0 L -0.421875 0 L 13.96875 -32.28125 L 21.359375 -32.28125 L 35.796875 0 L 27.953125 0 Z M 22.734375 -12.59375 L 17.625 -24.953125 L 12.5 -12.59375 Z M 22.734375 -12.59375 "/></g></g></g><g fill="rgb(33.729553%, 30.198669%, 92.158508%)" fill-opacity="1"><g transform="translate(200.689164, 70.650802)"><g><path d="M 17.796875 -32.28125 C 20.660156 -32.28125 23.144531 -31.800781 25.25 -30.84375 C 27.351562 -29.894531 28.972656 -28.546875 30.109375 -26.796875 C 31.253906 -25.046875 31.828125 -22.972656 31.828125 -20.578125 C 31.828125 -18.203125 31.253906 -16.128906 30.109375 -14.359375 C 28.972656 -12.597656 27.351562 -11.25 25.25 -10.3125 C 23.144531 -9.375 20.660156 -8.90625 17.796875 -8.90625 L 11.296875 -8.90625 L 11.296875 0 L 3.828125 0 L 3.828125 -32.28125 Z M 17.390625 -14.984375 C 19.628906 -14.984375 21.332031 -15.46875 22.5 -16.4375 C 23.675781 -17.40625 24.265625 -18.785156 24.265625 -20.578125 C 24.265625 -22.390625 23.675781 -23.78125 22.5 -24.75 C 21.332031 -25.71875 19.628906 -26.203125 17.390625 -26.203125 L 11.296875 -26.203125 L 11.296875 -14.984375 Z M 17.390625 -14.984375 "/></g></g></g><g fill="rgb(33.729553%, 30.198669%, 92.158508%)" fill-opacity="1"><g transform="translate(243.159635, 70.650802)"><g><path d="M 17.796875 -32.28125 C 20.660156 -32.28125 23.144531 -31.800781 25.25 -30.84375 C 27.351562 -29.894531 28.972656 -28.546875 30.109375 -26.796875 C 31.253906 -25.046875 31.828125 -22.972656 31.828125 -20.578125 C 31.828125 -18.203125 31.253906 -16.128906 30.109375 -14.359375 C 28.972656 -12.597656 27.351562 -11.25 25.25 -10.3125 C 23.144531 -9.375 20.660156 -8.90625 17.796875 -8.90625 L 11.296875 -8.90625 L 11.296875 0 L 3.828125 0 L 3.828125 -32.28125 Z M 17.390625 -14.984375 C 19.628906 -14.984375 21.332031 -15.46875 22.5 -16.4375 C 23.675781 -17.40625 24.265625 -18.785156 24.265625 -20.578125 C 24.265625 -22.390625 23.675781 -23.78125 22.5 -24.75 C 21.332031 -25.71875 19.628906 -26.203125 17.390625 -26.203125 L 11.296875 -26.203125 L 11.296875 -14.984375 Z M 17.390625 -14.984375 "/></g></g></g><g fill="rgb(33.729553%, 30.198669%, 92.158508%)" fill-opacity="1"><g transform="translate(285.630118, 70.650802)"><g><path d="M 33.4375 -32.28125 L 33.4375 0 L 25.96875 0 L 25.96875 -13.234375 L 11.296875 -13.234375 L 11.296875 0 L 3.828125 0 L 3.828125 -32.28125 L 11.296875 -32.28125 L 11.296875 -19.5625 L 25.96875 -19.5625 L 25.96875 -32.28125 Z M 33.4375 -32.28125 "/></g></g></g><g fill="rgb(33.729553%, 30.198669%, 92.158508%)" fill-opacity="1"><g transform="translate(331.60502, 70.650802)"><g><path d="M 3.828125 -32.28125 L 11.296875 -32.28125 L 11.296875 0 L 3.828125 0 Z M 3.828125 -32.28125 "/></g></g></g><g fill="rgb(33.729553%, 30.198669%, 92.158508%)" fill-opacity="1"><g transform="translate(355.446705, 70.650802)"><g><path d="M 24.40625 0 L 18.171875 -9 L 11.296875 -9 L 11.296875 0 L 3.828125 0 L 3.828125 -32.28125 L 17.796875 -32.28125 C 20.660156 -32.28125 23.144531 -31.800781 25.25 -30.84375 C 27.351562 -29.894531 28.972656 -28.546875 30.109375 -26.796875 C 31.253906 -25.046875 31.828125 -22.972656 31.828125 -20.578125 C 31.828125 -18.171875 31.25 -16.097656 30.09375 -14.359375 C 28.9375 -12.628906 27.300781 -11.300781 25.1875 -10.375 L 32.421875 0 Z M 24.265625 -20.578125 C 24.265625 -22.390625 23.675781 -23.78125 22.5 -24.75 C 21.332031 -25.71875 19.628906 -26.203125 17.390625 -26.203125 L 11.296875 -26.203125 L 11.296875 -14.9375 L 17.390625 -14.9375 C 19.628906 -14.9375 21.332031 -15.425781 22.5 -16.40625 C 23.675781 -17.394531 24.265625 -18.785156 24.265625 -20.578125 Z M 24.265625 -20.578125 "/></g></g></g><g fill="rgb(33.729553%, 30.198669%, 92.158508%)" fill-opacity="1"><g transform="translate(398.055513, 70.650802)"><g><path d="M 28.828125 -6 L 28.828125 0 L 3.828125 0 L 3.828125 -32.28125 L 28.234375 -32.28125 L 28.234375 -26.296875 L 11.25 -26.296875 L 11.25 -19.28125 L 26.25 -19.28125 L 26.25 -13.46875 L 11.25 -13.46875 L 11.25 -6 Z M 28.828125 -6 "/></g></g></g></svg>