<svg xmlns="http://www.w3.org/2000/svg" xmlns:xlink="http://www.w3.org/1999/xlink" width="125" zoomAndPan="magnify" viewBox="0 0 93.75 107.999999" height="144" preserveAspectRatio="xMidYMid meet" version="1.0"><defs><clipPath id="id1"><path d="M 1.4375 1.753906 L 92.1875 1.753906 L 92.1875 81 L 1.4375 81 Z M 1.4375 1.753906 " clip-rule="nonzero"/></clipPath><clipPath id="id2"><path d="M 1.4375 53 L 92.1875 53 L 92.1875 106.753906 L 1.4375 106.753906 Z M 1.4375 53 " clip-rule="nonzero"/></clipPath><clipPath id="id3"><path d="M 46 1.753906 L 48 1.753906 L 48 106.753906 L 46 106.753906 Z M 46 1.753906 " clip-rule="nonzero"/></clipPath><clipPath id="id4"><path d="M 2 2 L 92 2 L 92 106.753906 L 2 106.753906 Z M 2 2 " clip-rule="nonzero"/></clipPath></defs><g clip-path="url(#id1)"><path fill="rgb(33.729553%, 30.198669%, 92.158508%)" d="M 68.535156 41.664062 L 46.8125 3.914062 L 25.109375 41.628906 L 25.089844 41.667969 L 4.070312 78.191406 L 24.125 66.574219 L 46.457031 53.636719 C 46.667969 53.511719 46.9375 53.503906 47.160156 53.636719 L 69.492188 66.574219 L 89.546875 78.191406 L 68.53125 41.667969 L 68.53125 41.664062 Z M 47.425781 2.144531 L 69.757812 40.960938 L 69.761719 40.960938 L 92.09375 79.773438 C 92.289062 80.113281 92.171875 80.550781 91.835938 80.742188 C 91.59375 80.882812 91.304688 80.863281 91.089844 80.722656 L 68.792969 67.808594 L 46.8125 55.070312 L 24.828125 67.808594 L 2.496094 80.746094 C 2.15625 80.941406 1.726562 80.824219 1.535156 80.488281 C 1.40625 80.257812 1.414062 79.992188 1.535156 79.78125 L 23.867188 40.964844 L 23.890625 40.925781 L 46.203125 2.152344 C 46.394531 1.8125 46.828125 1.695312 47.164062 1.890625 C 47.277344 1.957031 47.367188 2.046875 47.425781 2.152344 Z M 47.425781 2.144531 " fill-opacity="1" fill-rule="evenodd"/></g><g clip-path="url(#id2)"><path fill="rgb(33.729553%, 30.198669%, 92.158508%)" d="M 68.792969 67.808594 L 46.8125 55.070312 L 24.828125 67.808594 L 3.554688 80.132812 L 24.828125 92.457031 L 46.8125 105.191406 L 68.792969 92.457031 L 90.070312 80.132812 Z M 47.164062 53.640625 L 69.496094 66.582031 L 91.832031 79.519531 C 92.167969 79.714844 92.285156 80.144531 92.09375 80.488281 C 92.027344 80.601562 91.933594 80.6875 91.832031 80.746094 L 69.496094 93.683594 L 47.164062 106.625 C 46.941406 106.753906 46.667969 106.746094 46.460938 106.625 L 24.128906 93.683594 L 1.792969 80.746094 C 1.457031 80.550781 1.335938 80.121094 1.535156 79.78125 C 1.597656 79.667969 1.691406 79.578125 1.792969 79.519531 L 24.128906 66.582031 L 46.460938 53.640625 C 46.6875 53.511719 46.953125 53.519531 47.164062 53.640625 Z M 47.164062 53.640625 " fill-opacity="1" fill-rule="evenodd"/></g><g clip-path="url(#id3)"><path fill="rgb(33.729553%, 30.198669%, 92.158508%)" d="M 46.105469 2.496094 C 46.105469 2.101562 46.421875 1.785156 46.816406 1.785156 C 47.207031 1.785156 47.523438 2.105469 47.523438 2.496094 L 47.523438 106.007812 C 47.523438 106.402344 47.207031 106.71875 46.816406 106.71875 C 46.425781 106.71875 46.105469 106.402344 46.105469 106.007812 Z M 46.105469 2.496094 " fill-opacity="1" fill-rule="evenodd"/></g><g clip-path="url(#id4)"><path fill="rgb(33.729553%, 30.198669%, 92.158508%)" d="M 46.8125 18.957031 L 66.984375 54.011719 L 81.1875 62.242188 L 46.8125 2.496094 L 24.480469 41.3125 L 6.246094 73.003906 L 2.144531 80.132812 L 10.34375 84.882812 L 18.542969 80.132812 L 37.113281 69.371094 L 46.8125 63.753906 L 75.082031 80.132812 L 46.8125 96.507812 L 28.699219 86.011719 L 20.5 90.765625 L 26.601562 94.300781 L 46.8125 106.007812 L 69.148438 93.070312 L 91.480469 80.132812 L 77.277344 71.902344 L 46.8125 54.253906 L 24.480469 67.191406 L 16.34375 71.902344 Z M 46.8125 18.957031 " fill-opacity="1" fill-rule="evenodd"/></g></svg>