<svg xmlns="http://www.w3.org/2000/svg" xmlns:xlink="http://www.w3.org/1999/xlink" width="150" zoomAndPan="magnify" viewBox="0 0 112.5 112.499997" height="150" preserveAspectRatio="xMidYMid meet" version="1.0"><defs><clipPath id="id1"><path d="M 27.863281 23.519531 L 84.863281 23.519531 L 84.863281 73 L 27.863281 73 Z M 27.863281 23.519531 " clip-rule="nonzero"/></clipPath><clipPath id="id2"><path d="M 27.863281 55 L 84.863281 55 L 84.863281 88.769531 L 27.863281 88.769531 Z M 27.863281 55 " clip-rule="nonzero"/></clipPath><clipPath id="id3"><path d="M 55 23.519531 L 57 23.519531 L 57 88.769531 L 55 88.769531 Z M 55 23.519531 " clip-rule="nonzero"/></clipPath><clipPath id="id4"><path d="M 28 23.519531 L 84.863281 23.519531 L 84.863281 88.769531 L 28 88.769531 Z M 28 23.519531 " clip-rule="nonzero"/></clipPath></defs><path fill="rgb(33.729553%, 30.198669%, 92.158508%)" d="M 56.382812 1.257812 C 25.9375 1.257812 1.257812 25.9375 1.257812 56.382812 C 1.257812 86.828125 25.9375 111.507812 56.382812 111.507812 C 86.828125 111.507812 111.507812 86.828125 111.507812 56.382812 C 111.507812 25.9375 86.828125 1.257812 56.382812 1.257812 " fill-opacity="1" fill-rule="nonzero"/><g clip-path="url(#id1)"><path fill="rgb(100%, 100%, 100%)" d="M 70.007812 48.324219 L 56.363281 24.863281 L 42.730469 48.300781 L 42.71875 48.324219 L 29.519531 71.019531 L 42.113281 63.800781 L 56.140625 55.761719 C 56.273438 55.683594 56.441406 55.679688 56.582031 55.761719 L 70.609375 63.800781 L 83.203125 71.019531 L 70.003906 48.324219 Z M 56.746094 23.765625 L 70.773438 47.882812 L 70.777344 47.882812 L 84.804688 72 C 84.925781 72.214844 84.851562 72.484375 84.640625 72.605469 C 84.488281 72.691406 84.308594 72.679688 84.171875 72.589844 L 70.167969 64.566406 L 56.363281 56.652344 L 42.554688 64.566406 L 28.527344 72.605469 C 28.316406 72.726562 28.042969 72.652344 27.921875 72.445312 C 27.84375 72.304688 27.847656 72.136719 27.921875 72.003906 L 41.949219 47.886719 L 41.964844 47.863281 L 55.980469 23.769531 C 56.101562 23.558594 56.371094 23.484375 56.585938 23.609375 C 56.65625 23.648438 56.710938 23.703125 56.75 23.769531 Z M 56.746094 23.765625 " fill-opacity="1" fill-rule="evenodd"/></g><g clip-path="url(#id2)"><path fill="rgb(100%, 100%, 100%)" d="M 70.167969 64.566406 L 56.363281 56.652344 L 42.554688 64.566406 L 29.191406 72.222656 L 42.554688 79.882812 L 56.363281 87.796875 L 70.167969 79.882812 L 83.535156 72.222656 Z M 56.582031 55.765625 L 70.609375 63.804688 L 84.640625 71.84375 C 84.851562 71.964844 84.925781 72.234375 84.804688 72.445312 C 84.761719 72.515625 84.703125 72.570312 84.640625 72.605469 L 70.609375 80.644531 L 56.582031 88.6875 C 56.441406 88.769531 56.273438 88.761719 56.140625 88.6875 L 42.113281 80.644531 L 28.085938 72.605469 C 27.875 72.484375 27.800781 72.21875 27.921875 72.003906 C 27.964844 71.933594 28.023438 71.882812 28.085938 71.84375 L 56.140625 55.765625 C 56.285156 55.683594 56.453125 55.6875 56.582031 55.765625 Z M 56.582031 55.765625 " fill-opacity="1" fill-rule="evenodd"/></g><g clip-path="url(#id3)"><path fill="rgb(100%, 100%, 100%)" d="M 55.917969 23.984375 C 55.917969 23.738281 56.117188 23.542969 56.363281 23.542969 C 56.609375 23.542969 56.8125 23.742188 56.8125 23.984375 L 56.8125 88.300781 C 56.8125 88.546875 56.609375 88.746094 56.363281 88.746094 C 56.121094 88.746094 55.917969 88.546875 55.917969 88.300781 Z M 55.917969 23.984375 " fill-opacity="1" fill-rule="evenodd"/></g><g clip-path="url(#id4)"><path fill="rgb(100%, 100%, 100%)" d="M 56.363281 34.210938 L 69.03125 55.992188 L 77.953125 61.109375 L 56.363281 23.984375 L 42.335938 48.105469 L 30.882812 67.796875 L 28.308594 72.222656 L 33.457031 75.175781 L 38.605469 72.222656 L 50.273438 65.539062 L 56.363281 62.046875 L 74.121094 72.222656 L 56.363281 82.402344 L 44.988281 75.878906 L 39.835938 78.832031 L 43.667969 81.027344 L 56.363281 88.300781 L 70.390625 80.265625 L 84.417969 72.222656 L 75.5 67.109375 L 56.363281 56.144531 L 42.335938 64.183594 L 37.226562 67.109375 Z M 56.363281 34.210938 " fill-opacity="1" fill-rule="evenodd"/></g></svg>